<?xml version="1.0" encoding="UTF-8"?>
<svg version="1.1" xmlns="http://www.w3.org/2000/svg" width="637" height="392">
<path d="M0 0 C9.84178821 -0.02337415 19.68356961 -0.0410409 29.52538013 -0.05181217 C34.09741523 -0.05698697 38.66943106 -0.06398385 43.24145508 -0.07543945 C47.6700172 -0.08646364 52.09856104 -0.09231728 56.52713585 -0.09487724 C58.20004247 -0.09669689 59.87294831 -0.10024805 61.54584694 -0.10573006 C73.39683239 -0.14295007 85.17139488 0.27047362 97 1 C96.44877053 9.98077032 95.08581528 18.69182812 93.45019531 27.5234375 C92.96737432 30.17947661 92.50837936 32.83883389 92.0546875 35.5 C90.32337085 45.65470566 88.48593522 55.77284594 86.42993164 65.86694336 C84.95392055 73.13954696 83.66148889 80.43693207 82.39306641 87.74804688 C79.50772111 104.27874565 76.32941854 120.75260398 73.12121582 137.2230072 C72.29817364 141.45293504 71.48538307 145.68470486 70.6796875 149.91796875 C68.47538001 161.49336955 66.17893327 173.04104308 63.73852539 184.5690918 C62.3588756 191.13354565 61.1411929 197.70951839 60.02514648 204.32324219 C59.16074742 209.34775482 57.98593887 214.23809391 56.68359375 219.1640625 C55.96131744 222.16047735 55.46426258 225.14101661 55 228.1875 C54.18187621 233.38021957 52.7982818 238.07505739 51 243 C50.5386495 244.41568697 50.08038681 245.83238343 49.625 247.25 C44.57639866 262.24046243 38.48377386 277.2175222 29 290 C28.60989746 290.53318848 28.21979492 291.06637695 27.81787109 291.61572266 C26.49376834 293.41897735 25.15600649 295.21116305 23.8125 297 C23.38404785 297.57709717 22.9555957 298.15419434 22.51416016 298.7487793 C19.34970057 302.88343314 19.34970057 302.88343314 16 304 C15.71382812 304.59039062 15.42765625 305.18078125 15.1328125 305.7890625 C12.65294342 310.62908283 7.21360868 313.70614219 3 317 C2.31292969 317.56332031 1.62585938 318.12664062 0.91796875 318.70703125 C-3.77269277 322.44968539 -8.79687049 325.03873927 -14.19921875 327.62890625 C-17.14860462 329.01883392 -17.14860462 329.01883392 -20.375 331.0625 C-25.87610448 334.23974889 -31.96917965 336.09650892 -38 338 C-38.67562988 338.21833496 -39.35125977 338.43666992 -40.04736328 338.66162109 C-51.65256198 342.30115302 -63.30965226 343.76215816 -75.375 344.8125 C-76.09425659 344.87584534 -76.81351318 344.93919067 -77.55456543 345.00445557 C-84.26263148 345.57982081 -90.89753355 346.02502536 -97.63238525 345.95065308 C-104.44039997 345.94121092 -111.2272689 346.16168799 -118.02963257 346.42939758 C-119.14664063 346.47318849 -120.26364869 346.5169794 -121.41450548 346.56209731 C-123.15015206 346.63022687 -123.15015206 346.63022687 -124.9208622 346.69973278 C-155.89397006 347.91503808 -186.81966277 348.28817111 -217.81692553 348.23571944 C-223.66916229 348.22760022 -229.52139444 348.22856319 -235.37363581 348.22899476 C-246.92765163 348.22948665 -258.48163896 348.22056286 -270.03564453 348.20581055 C-281.1704154 348.1916017 -292.30516136 348.18464634 -303.43994141 348.18530273 C-304.13253593 348.18534269 -304.82513046 348.18538265 -305.5387127 348.18542381 C-306.57609397 348.18548435 -306.57609397 348.18548435 -307.63443244 348.1855461 C-321.12683555 348.18627273 -334.61922526 348.17929599 -348.11162519 348.1700995 C-351.95244485 348.16798205 -355.79326261 348.16726035 -359.63408279 348.16686058 C-365.66104875 348.16585088 -371.68798923 348.15970351 -377.71494675 348.14969444 C-379.91102696 348.14679662 -382.1071101 348.14553849 -384.30319214 348.14612198 C-418.02186064 348.15168816 -418.02186064 348.15168816 -430.375 344.5 C-431.19226563 344.27441406 -432.00953125 344.04882812 -432.8515625 343.81640625 C-438.56373355 342.21813322 -438.56373355 342.21813322 -441 341 C-441 340.34 -441 339.68 -441 339 C-441.71542969 338.91621094 -442.43085938 338.83242188 -443.16796875 338.74609375 C-446.62579976 337.83513413 -448.55556363 336.32114565 -451.3125 334.0625 C-452.63701172 332.99708984 -452.63701172 332.99708984 -453.98828125 331.91015625 C-454.65214844 331.27980469 -455.31601562 330.64945312 -456 330 C-456 329.34 -456 328.68 -456 328 C-456.99 327.67 -457.98 327.34 -459 327 C-460.19506836 325.57641602 -460.19506836 325.57641602 -461.33984375 323.75390625 C-461.76120605 323.08681641 -462.18256836 322.41972656 -462.61669922 321.73242188 C-463.27049561 320.65831055 -463.27049561 320.65831055 -463.9375 319.5625 C-464.38625488 318.82966797 -464.83500977 318.09683594 -465.29736328 317.34179688 C-471.43933745 307.13445294 -474.5624482 296.61742754 -477 285 C-477.25442871 283.8462085 -477.50885742 282.69241699 -477.77099609 281.50366211 C-480.30995566 269.25037718 -480.55079711 257.16722131 -480.5 244.6875 C-480.49956696 243.62383209 -480.49913391 242.56016418 -480.49868774 241.46426392 C-480.44782661 218.51258899 -478.49267798 195.85778631 -472.6628418 173.59790039 C-471.798247 170.20926198 -471.17696515 166.81753145 -470.5625 163.375 C-468.42644659 152.57298895 -466.01299732 145.41771232 -456.9375 138.75 C-452.81030906 136.29124795 -449.66215556 135.87493117 -444.90068436 135.87695217 C-443.86511847 135.87496112 -442.82955258 135.87297007 -441.76260591 135.87091869 C-440.62642752 135.87383153 -439.49024914 135.87674437 -438.31964111 135.87974548 C-437.11157547 135.87889106 -435.90350982 135.87803663 -434.65883613 135.87715632 C-431.30438754 135.87579253 -427.94999711 135.8789234 -424.59555554 135.88393438 C-420.97868682 135.88824838 -417.36181992 135.88679178 -413.74494934 135.8860321 C-407.47805606 135.88550747 -401.21117319 135.88864794 -394.94428253 135.89426994 C-385.88338442 135.90239316 -376.82249134 135.90500101 -367.76158997 135.90625793 C-353.06127197 135.90844716 -338.36095952 135.91510374 -323.66064453 135.92456055 C-309.37972033 135.93373801 -295.09879764 135.94081721 -280.81787109 135.94506836 C-279.93775829 135.94533108 -279.05764549 135.94559381 -278.1508626 135.94586449 C-273.73564413 135.94716952 -269.32042565 135.94843323 -264.90520716 135.94967639 C-228.27013419 135.96004497 -191.63506753 135.97765978 -155 136 C-154.95095614 140.70612331 -155.23021489 144.79055128 -156.3125 149.375 C-157.44030181 154.38223118 -158.44782897 159.37814509 -159.3125 164.4375 C-160.68278473 172.40910006 -162.18586321 180.35476103 -163.7137146 188.2973938 C-163.98744264 189.72172611 -164.26009051 191.14626643 -164.53164673 192.5710144 C-164.91650188 194.58830489 -165.30533282 196.60478847 -165.6953125 198.62109375 C-165.92234863 199.8011499 -166.14938477 200.98120605 -166.38330078 202.19702148 C-167 205 -167 205 -168 207 C-295.215 207.495 -295.215 207.495 -425 208 C-425.33 208.66 -425.66 209.32 -426 210 C-425.24332031 210.09539062 -424.48664063 210.19078125 -423.70703125 210.2890625 C-418.57834838 211.27264552 -413.67146518 212.82968344 -408.6875 214.375 C-407.69298828 214.67921875 -406.69847656 214.9834375 -405.67382812 215.296875 C-388.3928984 220.6071016 -388.3928984 220.6071016 -387 222 C-386.82050747 223.45582135 -386.70013367 224.91902566 -386.60546875 226.3828125 C-385.81782768 246.57233189 -385.81782768 246.57233189 -377 264 C-367.35914402 270.80531011 -355.0560786 269.16574424 -343.73022461 269.20532227 C-341.98507461 269.21491382 -340.23992688 269.22492463 -338.49478149 269.23532104 C-333.77853725 269.26223784 -329.06228314 269.28331858 -324.3460052 269.30332303 C-319.40924602 269.32526465 -314.47251681 269.35261316 -309.53578186 269.37937927 C-300.19690745 269.42919601 -290.8580163 269.4741755 -281.51910931 269.51740164 C-270.8830493 269.56686847 -260.24701937 269.62175143 -249.6109885 269.67708123 C-227.74068705 269.79073201 -205.87035686 269.89760754 -184 270 C-182.8056141 274.10974455 -183.24951131 277.72450547 -183.77734375 281.9140625 C-183.86754288 282.68374359 -183.957742 283.45342468 -184.05067444 284.24642944 C-184.33946156 286.70682044 -184.63752763 289.1659494 -184.9375 291.625 C-186.70471877 305.76723125 -186.70471877 305.76723125 -187 320 C-186.69449219 319.35675781 -186.38898438 318.71351563 -186.07421875 318.05078125 C-183.09390311 312.16570728 -179.68879038 307.07374163 -175.4375 302.0625 C-174.97883545 301.51956299 -174.5201709 300.97662598 -174.04760742 300.41723633 C-171.27297086 297.22444261 -168.35185778 294.56860579 -165 292 C-164.1028125 291.0409375 -164.1028125 291.0409375 -163.1875 290.0625 C-147.87033052 275.62059734 -126.15612409 275.7006176 -106.4519043 275.54370117 C-97.65107894 275.46057973 -89.02962296 275.08388512 -80.32421875 273.71484375 C-79.24609673 273.5540609 -79.24609673 273.5540609 -78.14619446 273.39002991 C-73.51240931 272.58491511 -69.76954602 271.08842481 -65.65266418 268.81471252 C-64 268 -64 268 -62 268 C-61.71125 267.360625 -61.4225 266.72125 -61.125 266.0625 C-60 264 -60 264 -58 263 C-45.43629601 241.53401432 -40.52839185 215.58860855 -35.69726562 191.47216797 C-35.21628146 189.07701504 -34.73029794 186.6828625 -34.24023438 184.28955078 C-31.26100006 169.72419991 -28.59704109 155.23964688 -26.9699707 140.44873047 C-26.06000924 132.19364643 -24.68420626 124.13481358 -23 116 C-22.50114416 113.53609492 -22.00565998 111.07153548 -21.51147461 108.60668945 C-21.18855865 107.00043301 -20.86291472 105.39472037 -20.53344727 103.78979492 C-19.49376951 98.67440791 -18.55781268 93.54433217 -17.66015625 88.40234375 C-15.86964557 78.15404987 -13.95688886 67.9290853 -12.03833008 57.70410156 C-11.43328871 54.47754208 -10.83084608 51.25050402 -10.22851562 48.0234375 C-9.83869845 45.94267895 -9.44872994 43.86194875 -9.05859375 41.78125 C-8.79289833 40.35601013 -8.79289833 40.35601013 -8.52183533 38.90197754 C-7.57800616 33.88540736 -6.56270754 28.89684498 -5.41662598 23.92236328 C-4.59293177 20.12173735 -4.16130112 16.2597135 -3.66015625 12.40625 C-3.10715032 9.55287027 -2.39099393 7.02692107 -1.45874023 4.28710938 C-1.18625961 3.48253296 -0.91377899 2.67795654 -0.63304138 1.84899902 C-0.3196859 0.93374451 -0.3196859 0.93374451 0 0 Z " fill="#2A3B6A" transform="translate(514,20)"/>
<path d="M0 0 C0.1333876 5.96955207 -0.21201983 11.35668382 -1.42578125 17.19140625 C-1.57403854 17.93978256 -1.72229584 18.68815887 -1.87504578 19.45921326 C-2.34617622 21.82866564 -2.82892124 24.1955603 -3.3125 26.5625 C-3.62515937 28.12028027 -3.93701351 29.67822238 -4.24804688 31.23632812 C-4.71043328 33.55187482 -5.17343794 35.86727583 -5.63981628 38.18202209 C-6.94114213 44.64993192 -8.16666413 51.13033523 -9.36962891 57.6171875 C-10.14629411 61.78507016 -10.9207435 65.89882529 -12 70 C-14.44294678 71.22147339 -16.00680017 71.12533318 -18.73831177 71.12584114 C-19.74427839 71.12844889 -20.75024502 71.13105664 -21.78669548 71.13374341 C-22.90009867 71.13151268 -24.01350185 71.12928196 -25.16064453 71.12698364 C-26.33700533 71.12854363 -27.51336613 71.13010362 -28.72537422 71.13171089 C-32.00066009 71.13502048 -35.27590921 71.13381429 -38.55119419 71.13072467 C-42.07952131 71.1284701 -45.60784332 71.13195047 -49.13616943 71.13470459 C-56.05214322 71.13916066 -62.96810619 71.13818654 -69.88408041 71.13529195 C-75.50281965 71.13303728 -81.12155585 71.13272567 -86.74029541 71.13381577 C-87.53875102 71.133969 -88.33720663 71.13412223 -89.15985787 71.13428011 C-90.78169934 71.13459982 -92.40354081 71.13492403 -94.02538228 71.1352527 C-109.24787874 71.13810701 -124.47036918 71.13482123 -139.69286466 71.12945233 C-152.76594924 71.12498434 -165.83902495 71.12576028 -178.91210938 71.13037109 C-194.07863194 71.13571771 -209.24514922 71.13783233 -224.41167259 71.13475883 C-226.02768326 71.13444027 -227.64369392 71.1341259 -229.25970459 71.13381577 C-230.05489695 71.13366149 -230.8500893 71.13350721 -231.6693784 71.13334826 C-237.28400176 71.13248337 -242.89862179 71.13394539 -248.51324463 71.13629532 C-255.35180853 71.13909448 -262.19036094 71.13835258 -269.02892351 71.13301457 C-272.52075107 71.13037914 -276.01255946 71.12936984 -279.5043869 71.13266373 C-283.28272921 71.13537514 -287.06101671 71.13199416 -290.83935547 71.12698364 C-291.95275866 71.12921436 -293.06616184 71.13144509 -294.21330452 71.13374341 C-295.72225446 71.12983178 -295.72225446 71.12983178 -297.26168823 71.12584114 C-298.13472029 71.12567879 -299.00775234 71.12551644 -299.90723991 71.12534916 C-302 71 -302 71 -304 70 C-303.54461843 64.29433678 -301.26648058 60.5895242 -298.1875 55.9375 C-297.70192627 55.1959668 -297.21635254 54.45443359 -296.71606445 53.69042969 C-291.11679215 45.36619608 -284.57294549 37.67297924 -276.76953125 31.328125 C-273.87450045 29.11505909 -273.87450045 29.11505909 -272 26 C-271.01 26 -270.02 26 -269 26 C-268.505 24.515 -268.505 24.515 -268 23 C-265.85546875 21.17578125 -265.85546875 21.17578125 -263.1875 19.3125 C-262.31480469 18.68988281 -261.44210937 18.06726563 -260.54296875 17.42578125 C-258 16 -258 16 -254 16 C-254 15.34 -254 14.68 -254 14 C-244.84502484 9.54413648 -235.76264643 5.58876067 -225.875 3.0625 C-225.12637695 2.86374268 -224.37775391 2.66498535 -223.60644531 2.46020508 C-208.46056394 -1.15919148 -191.99501477 -0.20947904 -176.5234375 -0.3515625 C-174.22269539 -0.37521038 -171.92195486 -0.39901294 -169.62121582 -0.42295837 C-163.47557656 -0.48501331 -157.32989478 -0.5399707 -151.18416595 -0.59233475 C-147.36839165 -0.62505667 -143.55263515 -0.65946292 -139.73687744 -0.69406128 C-93.14652375 -1.10826092 -46.58374337 -0.83352954 0 0 Z " fill="#2D3E6C" transform="translate(385,23)"/>
<path d="M0 0 C9.84178821 -0.02337415 19.68356961 -0.0410409 29.52538013 -0.05181217 C34.09741523 -0.05698697 38.66943106 -0.06398385 43.24145508 -0.07543945 C47.6700172 -0.08646364 52.09856104 -0.09231728 56.52713585 -0.09487724 C58.20004247 -0.09669689 59.87294831 -0.10024805 61.54584694 -0.10573006 C73.39683239 -0.14295007 85.17139488 0.27047362 97 1 C96.67 4.96 96.34 8.92 96 13 C95.67 13 95.34 13 95 13 C94.875 6.375 94.875 6.375 96 3 C78.64361043 6.18200475 63.9450826 15.56967163 50.29296875 26.34765625 C48 28 48 28 46 28 C45.73832031 28.60070312 45.47664062 29.20140625 45.20703125 29.8203125 C43.91552555 32.1525461 42.76290521 33.23067468 40.6875 34.875 C36.53559726 38.38461945 32.82807443 42.21754194 29.125 46.1875 C28.55354248 46.79384277 27.98208496 47.40018555 27.39331055 48.02490234 C26.85359619 48.60836426 26.31388184 49.19182617 25.7578125 49.79296875 C25.2745752 50.3139917 24.79133789 50.83501465 24.29345703 51.37182617 C22.88294281 53.14734889 21.99816166 54.97064737 21 57 C20.4225 57.556875 19.845 58.11375 19.25 58.6875 C15.93525328 62.09432301 13.56555582 66.01167491 11 70 C10.32839844 71.02351563 9.65679688 72.04703125 8.96484375 73.1015625 C-7.08927179 97.6470813 -22.20295192 123.71275911 -27 153 C-28.42120098 149.06124301 -27.77252132 145.30022414 -27.25 141.25 C-27.15638184 140.49630127 -27.06276367 139.74260254 -26.96630859 138.96606445 C-25.96809341 131.24723253 -24.54177999 123.62648855 -23 116 C-22.50270207 113.52978184 -22.00557636 111.0595304 -21.50927734 108.58911133 C-21.18683746 106.98943236 -20.86194922 105.3902433 -20.53369141 103.79174805 C-19.49420742 98.67565562 -18.55792545 93.54497818 -17.66015625 88.40234375 C-15.86964557 78.15404987 -13.95688886 67.9290853 -12.03833008 57.70410156 C-11.43328871 54.47754208 -10.83084608 51.25050402 -10.22851562 48.0234375 C-9.83869845 45.94267895 -9.44872994 43.86194875 -9.05859375 41.78125 C-8.88146347 40.83109009 -8.70433319 39.88093018 -8.52183533 38.90197754 C-7.57800616 33.88540736 -6.56270754 28.89684498 -5.41662598 23.92236328 C-4.59293177 20.12173735 -4.16130112 16.2597135 -3.66015625 12.40625 C-3.10715032 9.55287027 -2.39099393 7.02692107 -1.45874023 4.28710938 C-1.0500193 3.08024475 -1.0500193 3.08024475 -0.63304138 1.84899902 C-0.42413773 1.23882935 -0.21523407 0.62865967 0 0 Z " fill="#41AE50" transform="translate(514,20)"/>
<path d="M0 0 C9.84178821 -0.02337415 19.68356961 -0.0410409 29.52538013 -0.05181217 C34.09741523 -0.05698697 38.66943106 -0.06398385 43.24145508 -0.07543945 C47.6700172 -0.08646364 52.09856104 -0.09231728 56.52713585 -0.09487724 C58.20004247 -0.09669689 59.87294831 -0.10024805 61.54584694 -0.10573006 C73.39683239 -0.14295007 85.17139488 0.27047362 97 1 C96.67 4.96 96.34 8.92 96 13 C95.67 13 95.34 13 95 13 C94.92377142 9.03611362 95.0318352 5.8726592 96 2 C90.06 2 84.12 2 78 2 C78 2.66 78 3.32 78 4 C76.44152344 4.25523438 76.44152344 4.25523438 74.8515625 4.515625 C66.76912213 5.89635905 59.50752164 7.61615745 52 11 C51.04738281 11.36996094 50.09476563 11.73992188 49.11328125 12.12109375 C38.46014397 16.28140985 26.52534548 22.21198179 20 32 C18.948125 32.5878125 18.948125 32.5878125 17.875 33.1875 C4.44906609 41.65167573 -4.60372536 57.41235762 -12 71 C-12.66 71.99 -13.32 72.98 -14 74 C-13.49443602 63.36317969 -11.16484533 53.03202632 -9.0625 42.625 C-8.34139853 39.03457577 -7.62428507 35.44337981 -6.91015625 31.8515625 C-6.73779449 30.98936096 -6.56543274 30.12715942 -6.3878479 29.23883057 C-5.25715321 23.51415884 -4.30955494 17.79014793 -3.58764648 11.99755859 C-2.77719443 7.8634787 -1.40063947 3.96712437 0 0 Z " fill="#FCE20E" transform="translate(514,20)"/>
<path d="M0 0 C-15.00546649 7.06836448 -31.02674996 9.39409071 -47.375 10.8125 C-48.09389404 10.8757547 -48.81278809 10.9390094 -49.5534668 11.00418091 C-56.26192281 11.57964244 -62.89713226 12.02502979 -69.63238525 11.95065308 C-76.44039997 11.94121092 -83.2272689 12.16168799 -90.02963257 12.42939758 C-91.70514466 12.49508395 -91.70514466 12.49508395 -93.41450548 12.56209731 C-94.5716032 12.60751702 -95.72870091 12.65293672 -96.9208622 12.69973278 C-127.89397006 13.91503808 -158.81966277 14.28817111 -189.81692553 14.23571944 C-195.66916229 14.22760022 -201.52139444 14.22856319 -207.37363581 14.22899476 C-218.92765163 14.22948665 -230.48163896 14.22056286 -242.03564453 14.20581055 C-253.1704154 14.1916017 -264.30516136 14.18464634 -275.43994141 14.18530273 C-276.13253593 14.18534269 -276.82513046 14.18538265 -277.5387127 14.18542381 C-278.57609397 14.18548435 -278.57609397 14.18548435 -279.63443244 14.1855461 C-293.12683555 14.18627273 -306.61922526 14.17929599 -320.11162519 14.1700995 C-323.95244485 14.16798205 -327.79326261 14.16726035 -331.63408279 14.16686058 C-337.66104875 14.16585088 -343.68798923 14.15970351 -349.71494675 14.14969444 C-351.91102696 14.14679662 -354.1071101 14.14553849 -356.30319214 14.14612198 C-390.84062594 14.15182332 -390.84062594 14.15182332 -396 11 C-395.32871881 11.01211171 -394.65743763 11.02422342 -393.96581459 11.03670216 C-343.43863026 11.938035 -292.92101353 12.18836298 -242.38643098 12.18511021 C-234.32490863 12.18546395 -226.26342959 12.19712063 -218.20192087 12.2110464 C-210.2202673 12.22431264 -202.23863258 12.22947929 -194.25696814 12.22884732 C-189.5773611 12.22859925 -184.89780747 12.23105135 -180.21821213 12.24202538 C-155.73360369 12.29561228 -131.35996872 11.59680313 -106.90747988 10.33727556 C-97.15119294 9.84161839 -87.39174884 9.60474597 -77.625 9.4375 C-75.12910446 9.3928869 -72.63330107 9.34644222 -70.13754272 9.29469299 C-68.64171329 9.26373843 -67.14579695 9.23658228 -65.64981079 9.21446228 C-61.67037755 9.13292325 -57.91392658 8.69466346 -54 8 C-52.3808383 7.88602871 -50.75914465 7.80298054 -49.13671875 7.75390625 C-48.24919922 7.72103516 -47.36167969 7.68816406 -46.44726562 7.65429688 C-44.61925409 7.59349253 -42.79112368 7.53615489 -40.96289062 7.48242188 C-33.47805353 7.1955843 -26.73334061 6.38719357 -20 3 C-18.03120908 2.61003316 -16.04981737 2.28068039 -14.0625 2 C-10.90417068 1.55280293 -8.25696094 1.10740893 -5.30859375 -0.125 C-3 -1 -3 -1 0 0 Z " fill="#D4DEE6" transform="translate(486,354)"/>
<path d="M0 0 C9.84178821 -0.02337415 19.68356961 -0.0410409 29.52538013 -0.05181217 C34.09741523 -0.05698697 38.66943106 -0.06398385 43.24145508 -0.07543945 C47.6700172 -0.08646364 52.09856104 -0.09231728 56.52713585 -0.09487724 C58.20004247 -0.09669689 59.87294831 -0.10024805 61.54584694 -0.10573006 C73.39683239 -0.14295007 85.17139488 0.27047362 97 1 C96.67 4.96 96.34 8.92 96 13 C95.67 13 95.34 13 95 13 C94.92377142 9.03611362 95.0318352 5.8726592 96 2 C90.06 2 84.12 2 78 2 C78 2.66 78 3.32 78 4 C76.44152344 4.25523438 76.44152344 4.25523438 74.8515625 4.515625 C66.77511887 5.89533462 59.49555198 7.59835619 52 11 C49.83516639 11.90025398 47.6684419 12.79597235 45.5 13.6875 C41.7103372 15.2574603 41.7103372 15.2574603 38 17 C38.5625 14.625 38.5625 14.625 40 12 C43.3125 10.8125 43.3125 10.8125 47 10 C47.9075 9.62875 48.815 9.2575 49.75 8.875 C52 8 52 8 55 8 C55 7.01 55 6.02 55 5 C37.18 4.34 19.36 3.68 1 3 C1 5.97 1 8.94 1 12 C0.67 12.33 0.34 12.66 0 13 C-0.23287008 14.68183948 -0.41264166 16.3712416 -0.5625 18.0625 C-0.64628906 18.98160156 -0.73007812 19.90070312 -0.81640625 20.84765625 C-0.87699219 21.55792969 -0.93757812 22.26820312 -1 23 C-1.99 23.33 -2.98 23.66 -4 24 C-3.938125 25.7325 -3.938125 25.7325 -3.875 27.5 C-3.86866598 31.12306188 -4.50840261 34.22398465 -5.4921875 37.72265625 C-6.33361162 41.49611981 -6.50658544 45.31683046 -6.75390625 49.16796875 C-6.98649284 51.84456044 -7.42024159 54.37910868 -8 57 C-6.35 56.34 -4.7 55.68 -3 55 C-3.55429687 55.95261719 -4.10859375 56.90523437 -4.6796875 57.88671875 C-5.41163189 59.15354557 -6.14339305 60.42047827 -6.875 61.6875 C-7.42220703 62.62625977 -7.42220703 62.62625977 -7.98046875 63.58398438 C-9.93741197 66.98194942 -11.65607739 70.30067619 -13 74 C-13.33 74 -13.66 74 -14 74 C-13.49443602 63.36317969 -11.16484533 53.03202632 -9.0625 42.625 C-8.34139853 39.03457577 -7.62428507 35.44337981 -6.91015625 31.8515625 C-6.73779449 30.98936096 -6.56543274 30.12715942 -6.3878479 29.23883057 C-5.25715321 23.51415884 -4.30955494 17.79014793 -3.58764648 11.99755859 C-2.77719443 7.8634787 -1.40063947 3.96712437 0 0 Z " fill="#EEE08B" transform="translate(514,20)"/>
<path d="M0 0 C1.01138928 -0.00427212 2.02277856 -0.00854425 3.064816 -0.01294583 C6.44002935 -0.02115497 9.81398883 0.00627622 13.18908691 0.03364563 C15.61388113 0.03505654 18.03867748 0.03426328 20.46347046 0.03143311 C25.67673268 0.03029602 30.88971352 0.04443955 36.10289001 0.0726223 C43.64013582 0.11334248 51.17723052 0.12628817 58.7145744 0.13256226 C70.94477132 0.14349214 83.17480103 0.17673072 95.40490723 0.22407532 C107.28185187 0.27000483 119.15875102 0.30538008 131.0357666 0.32661438 C131.76846573 0.327928 132.50116485 0.32924161 133.25606698 0.33059504 C136.93198315 0.33712046 140.60789963 0.34343894 144.28381634 0.34965456 C174.75561476 0.40144686 205.22721039 0.48984935 235.69885254 0.60127258 C235.69885254 0.93127258 235.69885254 1.26127258 235.69885254 1.60127258 C233.81811728 1.60347242 233.81811728 1.60347242 231.89938736 1.60571671 C202.14973485 1.64140302 172.40019868 1.69762141 142.65063991 1.77919354 C138.99060441 1.78921124 135.33056848 1.79905532 131.67053223 1.80879211 C130.94187146 1.81073349 130.2132107 1.81267486 129.46246931 1.81467506 C117.65729882 1.84571339 105.85214778 1.86268082 94.04694417 1.87446681 C81.93765638 1.8868689 69.82847084 1.9143489 57.71924758 1.95588565 C50.24453315 1.98104819 42.76998822 1.99438787 35.29523084 1.99270216 C29.56779707 1.99266894 23.8405895 2.01359304 18.11323547 2.04244041 C15.76059697 2.05098329 13.40792235 2.05265985 11.05527496 2.04707527 C7.8508185 2.04047994 4.64740551 2.0582493 1.4430542 2.08229065 C0.50531418 2.07453023 -0.43242584 2.06676981 -1.39858222 2.05877423 C-6.49511381 2.04481801 -6.49511381 2.04481801 -10.74609756 4.6063652 C-11.25926403 5.26468464 -11.7724305 5.92300407 -12.30114746 6.60127258 C-13.16739746 6.74564758 -14.03364746 6.89002258 -14.92614746 7.03877258 C-15.70989746 7.22439758 -16.49364746 7.41002258 -17.30114746 7.60127258 C-18.51412395 9.88194329 -18.51412395 9.88194329 -19.30114746 12.60127258 C-20.81005623 15.30473413 -22.11004135 17.41016647 -24.30114746 19.60127258 C-23.21831657 13.06154392 -22.06758935 8.60631314 -16.68136358 4.30893451 C-11.09858652 0.42668531 -6.69537317 -0.1044179 0 0 Z " fill="#535E7A" transform="translate(70.3011474609375,156.3987274169922)"/>
<path d="M0 0 C-37.77925177 17.79601596 -85.32354264 12.38642956 -126 12 C-126 11.67 -126 11.34 -126 11 C-124.77970596 10.96574669 -124.77970596 10.96574669 -123.53475952 10.93080139 C-115.85467593 10.71448979 -108.17472116 10.49420911 -100.49487877 10.26950932 C-96.54693721 10.15413796 -92.59896424 10.04028249 -88.65087891 9.92993164 C-84.83823378 9.82330992 -81.02572487 9.71265363 -77.21327591 9.59924126 C-75.76132943 9.55675045 -74.30934019 9.51569466 -72.85731125 9.4761219 C-70.81798994 9.4202941 -68.7788826 9.3592891 -66.73974609 9.29711914 C-65.58058685 9.26380997 -64.42142761 9.23050079 -63.22714233 9.19618225 C-60.08698569 9.00528798 -57.0934714 8.55723005 -54 8 C-52.3808383 7.88602871 -50.75914465 7.80298054 -49.13671875 7.75390625 C-48.24919922 7.72103516 -47.36167969 7.68816406 -46.44726562 7.65429688 C-44.61925409 7.59349253 -42.79112368 7.53615489 -40.96289062 7.48242188 C-33.47805353 7.1955843 -26.73334061 6.38719357 -20 3 C-18.03120908 2.61003316 -16.04981737 2.28068039 -14.0625 2 C-10.90417068 1.55280293 -8.25696094 1.10740893 -5.30859375 -0.125 C-3 -1 -3 -1 0 0 Z " fill="#8B93AA" transform="translate(486,354)"/>
<path d="M0 0 C5.94 0 11.88 0 18 0 C18 0.33 18 0.66 18 1 C16.7625 1.226875 15.525 1.45375 14.25 1.6875 C3.55937506 4.11870131 -5.53582728 9.28582137 -14.75 15.01171875 C-17.14100744 16.47448652 -19.46639029 17.81553746 -22 19 C-20.49776416 14.79373966 -17.71449966 13.26099979 -14 11 C-14.33 10.34 -14.66 9.68 -15 9 C-14.67 8.34 -14.34 7.68 -14 7 C-17.3 7.33 -20.6 7.66 -24 8 C-16.62688542 3.08459028 -8.69271279 1.68954597 0 2 C0 1.34 0 0.68 0 0 Z " fill="#45AF44" transform="translate(592,22)"/>
<path d="M0 0 C0.33 1.65 0.66 3.3 1 5 C0.44570313 5.32613281 -0.10859375 5.65226562 -0.6796875 5.98828125 C-1.76636719 6.64376953 -1.76636719 6.64376953 -2.875 7.3125 C-3.59429688 7.74175781 -4.31359375 8.17101563 -5.0546875 8.61328125 C-7.26846333 10.01752375 -7.26846333 10.01752375 -9 13 C-11.625 13.6875 -11.625 13.6875 -14 14 C-14.33 12.35 -14.66 10.7 -15 9 C-15.66 9 -16.32 9 -17 9 C-17.33 8.01 -17.66 7.02 -18 6 C-17.01 5.67 -16.02 5.34 -15 5 C-14.67 4.34 -14.34 3.68 -14 3 C-9.44293818 0.62902273 -5.14995171 -0.38624638 0 0 Z " fill="#40B34F" transform="translate(578,29)"/>
<path d="M0 0 C0.33 0 0.66 0 1 0 C1.20521434 5.56358885 1.06855211 10.39632686 -0.4921875 15.79296875 C-1.35371991 19.53732115 -1.50817073 23.34151568 -1.75390625 27.16796875 C-1.98649284 29.84456044 -2.42024159 32.37910868 -3 35 C-1.35 34.34 0.3 33.68 2 33 C1.44570313 33.95261719 0.89140625 34.90523437 0.3203125 35.88671875 C-0.41163189 37.15354557 -1.14339305 38.42047827 -1.875 39.6875 C-2.42220703 40.62625977 -2.42220703 40.62625977 -2.98046875 41.58398438 C-4.93741197 44.98194942 -6.65607739 48.30067619 -8 52 C-8.33 52 -8.66 52 -9 52 C-8.50183563 41.09965109 -6.07459703 30.47964886 -3.9375 19.8125 C-3.55612497 17.88747188 -3.17526123 15.96234239 -2.79492188 14.03710938 C-1.86917547 9.3568827 -0.93650794 4.67808467 0 0 Z " fill="#EBEB6E" transform="translate(509,42)"/>
<path d="M0 0 C0.33 0 0.66 0 1 0 C1.14633605 4.17057755 1.21745393 7.26793399 0.01953125 11.30078125 C-1.37472752 16.35964353 -1.39441131 21.25450153 -1.55859375 26.4765625 C-2 30 -2 30 -3.43164062 32.14941406 C-5.57529837 36.04563881 -5.96525667 39.76175638 -6.53515625 44.1328125 C-6.65934433 45.00646454 -6.78353241 45.88011658 -6.91148376 46.78024292 C-7.30574131 49.56046917 -7.68537398 52.34240204 -8.0625 55.125 C-8.44441896 57.91452261 -8.8296389 60.70342056 -9.22422791 63.49118042 C-9.46903684 65.22295884 -9.70641806 66.95580711 -9.93556213 68.68972778 C-10.04585251 69.47419281 -10.15614288 70.25865784 -10.26977539 71.06689453 C-10.36287491 71.75574738 -10.45597443 72.44460022 -10.55189514 73.15432739 C-11 75 -11 75 -13 78 C-12.64191251 65.34160735 -10.55654718 53.37621779 -8 41 C-7.30816042 37.58420162 -6.62290924 34.16709352 -5.9375 30.75 C-5.77233887 29.93305664 -5.60717773 29.11611328 -5.43701172 28.27441406 C-4.17433431 21.99237454 -3.02718349 15.69448272 -1.95092773 9.37792969 C-1.40971872 6.2175508 -0.84476265 3.09483139 0 0 Z " fill="#B5E1BE" transform="translate(499,95)"/>
<path d="M0 0 C1.91407654 0.01061211 1.91407654 0.01061211 3.86682129 0.0214386 C7.23434347 0.04458561 10.6001223 0.08937859 13.96716309 0.1449585 C17.41285257 0.19641255 20.8587233 0.2190079 24.3046875 0.24414062 C31.04735066 0.29911867 37.78919984 0.3826793 44.53125 0.48828125 C44.53125 0.81828125 44.53125 1.14828125 44.53125 1.48828125 C43.83856018 1.49192688 43.14587036 1.49557251 42.43218994 1.49932861 C35.22951579 1.54110421 28.0274818 1.61041557 20.82519531 1.69580078 C18.1363781 1.72626321 15.44774902 1.74692691 12.75878906 1.75927734 C8.89604803 1.78065783 5.03431552 1.82728632 1.171875 1.87890625 C-0.0324115 1.88013489 -1.236698 1.88136353 -2.47747803 1.88262939 C-3.59833801 1.90234802 -4.719198 1.92206665 -5.87402344 1.94238281 C-6.85997498 1.95126526 -7.84592651 1.96014771 -8.86175537 1.96929932 C-12.15708788 2.62531066 -13.24743502 4.04802548 -15.46875 6.48828125 C-16.335 6.63265625 -17.20125 6.77703125 -18.09375 6.92578125 C-18.8775 7.11140625 -19.66125 7.29703125 -20.46875 7.48828125 C-21.68172649 9.76895195 -21.68172649 9.76895195 -22.46875 12.48828125 C-23.97765877 15.19174279 -25.27764389 17.29717514 -27.46875 19.48828125 C-26.23303329 12.02520267 -24.43103551 7.45831782 -18.16210938 2.87817383 C-12.42084848 -0.63108526 -6.54273874 -0.13756415 0 0 Z " fill="#97A1B4" transform="translate(73.46875,156.51171875)"/>
<path d="M0 0 C0.99 0 1.98 0 3 0 C2.9375 1.8125 2.9375 1.8125 2 4 C0.26984674 4.75082123 -1.46547929 5.4940899 -3.234375 6.1484375 C-5.88754541 7.42806394 -7.18972017 9.72255118 -9 12 C-12.25 13.3125 -12.25 13.3125 -15 14 C-13.81881152 9.40648925 -11.57631079 7.60818108 -7.8515625 5.015625 C-6 4 -6 4 -3.8984375 3.546875 C-1.60520367 3.10762953 -1.60520367 3.10762953 0 0 Z M-15 14 C-15.54723683 17.37462715 -16.0549 19.08235 -18 22 C-21.125 22.1875 -21.125 22.1875 -24 22 C-22.13554727 17.64961029 -20.02378599 14 -15 14 Z " fill="#222F5D" transform="translate(127,41)"/>
<path d="M0 0 C17.16 0 34.32 0 52 0 C52 0.33 52 0.66 52 1 C35.17 1 18.34 1 1 1 C1 3.97 1 6.94 1 10 C0.67 10.33 0.34 10.66 0 11 C-0.23287008 12.68183948 -0.41264166 14.3712416 -0.5625 16.0625 C-0.68818359 17.44115234 -0.68818359 17.44115234 -0.81640625 18.84765625 C-0.87699219 19.55792969 -0.93757812 20.26820312 -1 21 C-1.99 21.33 -2.98 21.66 -4 22 C-3.24294876 14.42948759 -1.62531279 7.58479304 0 0 Z " fill="#F5DF53" transform="translate(514,22)"/>
<path d="M0 0 C0.33 0 0.66 0 1 0 C1.38408795 9.48839486 0.55403863 17.84802826 -2 27 C-2.66 27 -3.32 27 -4 27 C-4.66 32.28 -5.32 37.56 -6 43 C-6.33 43 -6.66 43 -7 43 C-6.55539887 33.05013336 -5.14300297 23.72903228 -3 14 C-2.71106364 12.64738608 -2.42330992 11.29451901 -2.13671875 9.94140625 C-1.43220896 6.62586964 -0.71961789 3.31228374 0 0 Z " fill="#7E89A0" transform="translate(44,181)"/>
<path d="M0 0 C0.33 0.66 0.66 1.32 1 2 C-0.13386748 4.5676999 -1.32509408 7.0178984 -2.625 9.5 C-2.99383301 10.21961914 -3.36266602 10.93923828 -3.74267578 11.68066406 C-4.48241058 13.12390702 -5.22505165 14.56566435 -5.97070312 16.00585938 C-7.2968255 18.57506421 -8.58820664 21.16090975 -9.875 23.75 C-11.25 26.5 -12.625 29.25 -14 32 C-14.34403742 27.78554162 -14.2526201 24.99092889 -12 21.4375 C-9.73001098 18.24764696 -9.73001098 18.24764696 -10.125 15.125 C-9.92810289 10.20257222 -7.08946995 6.72011863 -4 3 C-1.796875 1.23046875 -1.796875 1.23046875 0 0 Z " fill="#3FA158" transform="translate(508,114)"/>
<path d="M0 0 C16.5 0 33 0 50 0 C50.495 0.99 50.495 0.99 51 2 C40.44168233 3.58290323 29.91349833 2.66936671 19.3125 2.0625 C17.43558588 1.96086556 15.5586328 1.85994814 13.68164062 1.75976562 C9.12060227 1.51477741 4.5602015 1.2600827 0 1 C0 0.67 0 0.34 0 0 Z " fill="#222D58" transform="translate(320,24)"/>
<path d="M0 0 C0.66 0.33 1.32 0.66 2 1 C2 1.66 2 2.32 2 3 C2.66 3.33 3.32 3.66 4 4 C0 8 -4 12 -8 16 C-8 15.34 -8 14.68 -8 14 C-8.99 13.67 -9.98 13.34 -11 13 C-7.61227103 8.30840284 -4.21814817 3.9700218 0 0 Z " fill="#F2E91A" transform="translate(524,52)"/>
<path d="M0 0 C2.45840605 -0.02691685 4.91651882 -0.04679802 7.375 -0.0625 C8.07367188 -0.07087891 8.77234375 -0.07925781 9.4921875 -0.08789062 C14.7734375 -0.11328125 14.7734375 -0.11328125 17 1 C18.7865453 1.11944476 20.57736251 1.17722318 22.36767578 1.20532227 C23.48868683 1.22526749 24.60969788 1.24521271 25.76467896 1.26576233 C27.58659256 1.29083107 27.58659256 1.29083107 29.4453125 1.31640625 C30.68546112 1.33718735 31.92560974 1.35796844 33.20333862 1.37937927 C36.50111823 1.43377705 39.7989272 1.48400095 43.09680176 1.53222656 C46.46172653 1.58245234 49.8265605 1.63813277 53.19140625 1.69335938 C59.79419854 1.80061557 66.39705872 1.90237189 73 2 C73 2.33 73 2.66 73 3 C65.49734131 3.0233102 57.99468644 3.04100934 50.49199963 3.05181217 C47.00710445 3.05700053 43.5222343 3.06402339 40.03735352 3.07543945 C36.01838967 3.08852067 31.99945156 3.09326163 27.98046875 3.09765625 C26.74668991 3.10281754 25.51291107 3.10797882 24.241745 3.11329651 C4.67182312 3.11454875 4.67182312 3.11454875 0 0 Z " fill="#455074" transform="translate(83,363)"/>
<path d="M0 0 C0.33 0 0.66 0 1 0 C1.72085447 7.59669715 2.11141623 14.82419912 1.265625 22.4140625 C0.55490889 29.33309287 0.85228126 35.56175188 2.66015625 42.28515625 C2.77230469 42.85105469 2.88445313 43.41695313 3 44 C2.505 44.495 2.505 44.495 2 45 C1.92851801 46.35243917 1.91600546 47.70834367 1.9375 49.0625 C1.958125 50.361875 1.97875 51.66125 2 53 C1.34 53 0.68 53 0 53 C-0.93162913 49.05329705 -1.12888846 45.37885665 -1.1328125 41.328125 C-1.13474609 40.03076416 -1.13667969 38.73340332 -1.13867188 37.39672852 C-1.13456825 36.01448426 -1.13000337 34.6322413 -1.125 33.25 C-1.12411377 32.55591034 -1.12322754 31.86182068 -1.12231445 31.146698 C-1.10664028 20.73678902 -0.86361123 10.37875638 0 0 Z " fill="#1C2956" transform="translate(36,237)"/>
<path d="M0 0 C0 0.99 0 1.98 0 3 C-0.33 3.33 -0.66 3.66 -1 4 C-1.29463383 5.41190865 -1.56090654 6.8297902 -1.8125 8.25 C-2.70987541 12.45104637 -4.01039894 14.83454006 -7 18 C-7.680625 18.928125 -8.36125 19.85625 -9.0625 20.8125 C-9.701875 21.534375 -10.34125 22.25625 -11 23 C-11.99 23 -12.98 23 -14 23 C-13.38393798 20.01354635 -12.43553313 17.79464591 -10.8203125 15.21484375 C-10.38589844 14.51939453 -9.95148438 13.82394531 -9.50390625 13.10742188 C-9.04886719 12.39134766 -8.59382813 11.67527344 -8.125 10.9375 C-7.45404297 9.85758789 -7.45404297 9.85758789 -6.76953125 8.75585938 C-4.72187227 5.50316214 -2.8083154 2.65105381 0 0 Z " fill="#626E8C" transform="translate(96,67)"/>
<path d="M0 0 C0 3.77017528 -1.07666468 4.6403308 -3.375 7.5625 C-7.01437733 12.55469637 -8.36466945 16.90601307 -9 23 C-9.99 23.33 -10.98 23.66 -12 24 C-12.33 24.99 -12.66 25.98 -13 27 C-13.66 27 -14.32 27 -15 27 C-14.67 22.05 -14.34 17.1 -14 12 C-13.67 12 -13.34 12 -13 12 C-12.67 13.98 -12.34 15.96 -12 18 C-11.45472656 16.93072266 -11.45472656 16.93072266 -10.8984375 15.83984375 C-7.77680586 9.89273526 -4.58358243 4.91098118 0 0 Z " fill="#929BB2" transform="translate(339,322)"/>
<path d="M0 0 C0.33 0 0.66 0 1 0 C1 5.61 1 11.22 1 17 C0.34 17 -0.32 17 -1 17 C-0.95875 18.0725 -0.9175 19.145 -0.875 20.25 C-1.02905207 24.87156223 -1.78438347 26.78438347 -5 30 C-3.87791788 19.83525606 -2.33636384 9.96848573 0 0 Z " fill="#758298" transform="translate(485,177)"/>
<path d="M0 0 C-6.44002961 3.0335929 -13.12978161 4.97381274 -20 6.75 C-20.82983398 6.97260498 -21.65966797 7.19520996 -22.51464844 7.42456055 C-28.42720751 8.90502352 -33.91661748 9.26210318 -40 9 C-40 8.67 -40 8.34 -40 8 C-38.89140625 7.80664062 -37.7828125 7.61328125 -36.640625 7.4140625 C-35.17702524 7.15136511 -33.71348673 6.88832633 -32.25 6.625 C-31.52039063 6.49867188 -30.79078125 6.37234375 -30.0390625 6.2421875 C-26.34668997 5.57084704 -23.31329842 4.71593981 -20 3 C-18.03120908 2.61003316 -16.04981737 2.28068039 -14.0625 2 C-10.90417068 1.55280293 -8.25696094 1.10740893 -5.30859375 -0.125 C-3 -1 -3 -1 0 0 Z " fill="#A7AEC5" transform="translate(486,354)"/>
<path d="M0 0 C0.33 0 0.66 0 1 0 C1.14628739 4.16919047 1.21835008 7.26578698 0.01953125 11.296875 C-1.38185466 16.38696634 -1.39490248 21.32025687 -1.55859375 26.57421875 C-2.00953499 30.07400168 -2.61002864 31.4825635 -5 34 C-5.32512629 26.33514765 -4.09741566 19.41944957 -2.5 11.9375 C-2.26152344 10.78572266 -2.02304687 9.63394531 -1.77734375 8.44726562 C-1.19279852 5.62975761 -0.60019417 2.81420829 0 0 Z " fill="#A1D3A9" transform="translate(499,95)"/>
<path d="M0 0 C0.33 0 0.66 0 1 0 C1 1.98 1 3.96 1 6 C0.34 6 -0.32 6 -1 6 C-0.979375 6.7425 -0.95875 7.485 -0.9375 8.25 C-0.99443846 10.75529208 -1.3467879 12.60488898 -2 15 C-2.165 16.051875 -2.33 17.10375 -2.5 18.1875 C-3 21 -3 21 -4 22 C-4.36760731 24.32817964 -4.70241581 26.6618385 -5 29 C-5.66 29 -6.32 29 -7 29 C-6.85957123 27.35369672 -6.71250671 25.70795821 -6.5625 24.0625 C-6.48128906 23.14597656 -6.40007812 22.22945312 -6.31640625 21.28515625 C-6 19 -6 19 -5 18 C-4.676557 16.10932866 -4.39135818 14.21205437 -4.125 12.3125 C-3.38532038 7.61105149 -2.47325228 4.04714009 0 0 Z " fill="#61B05D" transform="translate(504,85)"/>
<path d="M0 0 C0.66 0.33 1.32 0.66 2 1 C-0.83922046 5.69563383 -3.72322356 8.57857885 -8 12 C-8.33 12.66 -8.66 13.32 -9 14 C-12.0625 14.625 -12.0625 14.625 -15 15 C-10.45200375 9.40246616 -5.47668152 4.6856053 0 0 Z " fill="#234558" transform="translate(564,45)"/>
<path d="M0 0 C0 3 0 3 -1.86328125 5.0078125 C-2.67152344 5.70648438 -3.47976563 6.40515625 -4.3125 7.125 C-5.51326172 8.18074219 -5.51326172 8.18074219 -6.73828125 9.2578125 C-9 11 -9 11 -12 12 C-11.6875 8.625 -11.6875 8.625 -11 5 C-7.71379848 2.80919899 -4.78119262 2.05033128 -1 1 C-0.67 0.67 -0.34 0.34 0 0 Z " fill="#7A86A6" transform="translate(529,324)"/>
<path d="M0 0 C0.93423645 3.01031744 1.04449911 3.86650268 0 7 C-0.22179785 8.89212737 -0.40614015 10.78884472 -0.5625 12.6875 C-0.64628906 13.68136719 -0.73007812 14.67523438 -0.81640625 15.69921875 C-0.87699219 16.45847656 -0.93757813 17.21773437 -1 18 C-1.99 18.33 -2.98 18.66 -4 19 C-3.938125 19.7425 -3.87625 20.485 -3.8125 21.25 C-4.03094296 24.45383006 -4.90250005 25.64031256 -7 28 C-6.52861573 22.81477308 -5.57062912 18.3520313 -3.83203125 13.453125 C-2.33305506 9.03360834 -1.18888328 4.51101101 0 0 Z " fill="#97A2B5" transform="translate(473,236)"/>
<path d="M0 0 C0.33 0 0.66 0 1 0 C0.58811937 6.80313171 -0.6425807 12.62500697 -3 19 C-3.5678934 20.68569261 -4.13054618 22.37316139 -4.6875 24.0625 C-5.125 25.375 -5.5625 26.6875 -6 28 C-7.12368126 24.62895622 -6.58518354 23.50523759 -5.546875 20.25 C-4.41641884 15.59898036 -4.29731819 10.76491526 -4 6 C-3.34 6.33 -2.68 6.66 -2 7 C-1.34 4.69 -0.68 2.38 0 0 Z " fill="#939DB6" transform="translate(568,244)"/>
<path d="M0 0 C2.625 -0.1875 2.625 -0.1875 5 0 C3.7500773 3.7497681 2.23946038 4.81524765 -1 7 C-2.32 7 -3.64 7 -5 7 C-6.77409808 8.92022703 -6.77409808 8.92022703 -8 11 C-8.66 10.67 -9.32 10.34 -10 10 C-8.8125 7.0625 -8.8125 7.0625 -7 4 C-4.4375 3.3125 -4.4375 3.3125 -2 3 C-1.34 2.01 -0.68 1.02 0 0 Z " fill="#202E5C" transform="translate(60,159)"/>
<path d="M0 0 C0 3 0 3 -2.4375 5.5 C-3.283125 6.325 -4.12875 7.15 -5 8 C-5.33 8.99 -5.66 9.98 -6 11 C-6.9590625 11.2165625 -6.9590625 11.2165625 -7.9375 11.4375 C-8.9584375 11.7159375 -8.9584375 11.7159375 -10 12 C-10.67719954 13.32801468 -11.34177939 14.66247697 -12 16 C-13.16897337 17.4493154 -14.37939308 18.86599231 -15.625 20.25 C-16.25664063 20.95640625 -16.88828125 21.6628125 -17.5390625 22.390625 C-18.02117188 22.92171875 -18.50328125 23.4528125 -19 24 C-19 19.58819843 -16.22815986 17.40002547 -13.4375 14.25 C-12.8919043 13.62399902 -12.34630859 12.99799805 -11.78417969 12.35302734 C-8.01620796 8.06129191 -4.13260178 3.94475625 0 0 Z " fill="#70B431" transform="translate(531,52)"/>
<path d="M0 0 C5.94 0 11.88 0 18 0 C18 0.33 18 0.66 18 1 C14.08488185 1.53294568 10.16774466 2.04924855 6.25 2.5625 C5.13882813 2.71396484 4.02765625 2.86542969 2.8828125 3.02148438 C1.81289063 3.16005859 0.74296875 3.29863281 -0.359375 3.44140625 C-1.34389648 3.57232666 -2.32841797 3.70324707 -3.34277344 3.83813477 C-5.85799021 3.99134946 -7.62146534 3.77228356 -10 3 C-6.78548731 1.39274365 -3.56387464 1.94251815 0 2 C0 1.34 0 0.68 0 0 Z " fill="#75B94D" transform="translate(592,22)"/>
<path d="M0 0 C0.33 1.32 0.66 2.64 1 4 C0.34 4 -0.32 4 -1 4 C-1.268125 4.556875 -1.53625 5.11375 -1.8125 5.6875 C-2.204375 6.450625 -2.59625 7.21375 -3 8 C-3.45375 8.886875 -3.9075 9.77375 -4.375 10.6875 C-6 13 -6 13 -8.1875 13.8125 C-8.785625 13.874375 -9.38375 13.93625 -10 14 C-9.35341074 10.50841798 -8.03960471 7.9025144 -6 5 C-5.01 4.67 -4.02 4.34 -3 4 C-1.31461399 2.00334686 -1.31461399 2.00334686 0 0 Z " fill="#3FB951" transform="translate(542,61)"/>
<path d="M0 0 C8.58 0 17.16 0 26 0 C26 0.66 26 1.32 26 2 C20.61972975 3.19088986 15.54708616 4.2919519 10 4 C10 3.67 10 3.34 10 3 C11.65 3 13.3 3 15 3 C15 2.34 15 1.68 15 1 C10.05 1 5.1 1 0 1 C0 0.67 0 0.34 0 0 Z " fill="#E4D138" transform="translate(566,22)"/>
<path d="M0 0 C0.33 0 0.66 0 1 0 C1.4248897 6.6920127 0.6358785 12.5732088 -0.875 19.0625 C-1.04870117 19.8248999 -1.22240234 20.5872998 -1.40136719 21.37280273 C-1.86417962 23.26704013 -2.42447934 25.13690939 -3 27 C-3.66 27.33 -4.32 27.66 -5 28 C-4.5453059 25.02023797 -4.08633791 22.04123469 -3.625 19.0625 C-3.49867188 18.23169922 -3.37234375 17.40089844 -3.2421875 16.54492188 C-2.37439781 10.96937315 -1.27575916 5.49685796 0 0 Z " fill="#F1E990" transform="translate(509,42)"/>
<path d="M0 0 C0.5775 0.226875 1.155 0.45375 1.75 0.6875 C0.76 2.1725 0.76 2.1725 -0.25 3.6875 C-1.075 3.81125 -1.9 3.935 -2.75 4.0625 C-3.575 4.26875 -4.4 4.475 -5.25 4.6875 C-6.46297649 6.9681707 -6.46297649 6.9681707 -7.25 9.6875 C-8.75890877 12.39096154 -10.05889389 14.49639389 -12.25 16.6875 C-11.10010895 9.74276329 -9.47988368 5.71551595 -4.25 0.8125 C-2.25 -0.3125 -2.25 -0.3125 0 0 Z " fill="#7D899E" transform="translate(58.25,159.3125)"/>
<path d="M0 0 C-0.58265625 0.23074219 -1.1653125 0.46148438 -1.765625 0.69921875 C-13.02025484 5.0382916 -13.02025484 5.0382916 -24 10 C-23.4375 7.625 -23.4375 7.625 -22 5 C-19.125 3.9375 -19.125 3.9375 -17.2734375 3.5390625 C-13.30404858 2.59786719 -9.50779529 1.08465237 -5.671875 -0.29296875 C-3 -1 -3 -1 0 0 Z " fill="#DCDA2B" transform="translate(576,27)"/>
<path d="M0 0 C0.33 0 0.66 0 1 0 C1.15855469 0.88042969 1.31710938 1.76085937 1.48046875 2.66796875 C3.22841312 11.52219157 3.22841312 11.52219157 9 18 C9 18.99 9 19.98 9 21 C8.34 20.34 7.68 19.68 7 19 C4.93125966 18.3574765 4.93125966 18.3574765 3 18 C3 17.34 3 16.68 3 16 C2.34 15.67 1.68 15.34 1 15 C0.68758629 12.45058627 0.48696579 9.99638487 0.375 7.4375 C0.33632812 6.72658203 0.29765625 6.01566406 0.2578125 5.28320312 C0.16328217 3.52257575 0.08054183 1.76132272 0 0 Z " fill="#21315D" transform="translate(127,267)"/>
<path d="M0 0 C1.45606519 4.52092968 0.27032841 7.51648796 -1 12 C-3.07553648 12.5534764 -4.84365964 13 -7 13 C-7.99 13.495 -7.99 13.495 -9 14 C-7.25 10.125 -7.25 10.125 -5 9 C-4.07133836 7.51132724 -3.20294664 5.98445294 -2.375 4.4375 C-1.70597656 3.19806641 -1.70597656 3.19806641 -1.0234375 1.93359375 C-0.68570312 1.29550781 -0.34796875 0.65742188 0 0 Z " fill="#687596" transform="translate(461,274)"/>
<path d="M0 0 C0.33 0 0.66 0 1 0 C1.24234375 1.02480469 1.4846875 2.04960937 1.734375 3.10546875 C2.07224003 4.466314 2.41081969 5.82698197 2.75 7.1875 C2.90726563 7.86103516 3.06453125 8.53457031 3.2265625 9.22851562 C4.74217075 15.20350969 7.61755211 18.8366745 12 23 C7.5306455 21.59534573 4.93821572 19.65291684 2 16 C-0.16450951 10.789557 -0.19864428 5.5620398 0 0 Z " fill="#B6BDCB" transform="translate(128,264)"/>
<path d="M0 0 C0.33 0 0.66 0 1 0 C1.55353075 18.04100228 1.55353075 18.04100228 -2 25 C-2.33 25 -2.66 25 -3 25 C-2.25166929 16.63051177 -1.14302815 8.3230205 0 0 Z " fill="#4BAE5A" transform="translate(493,130)"/>
<path d="M0 0 C2.13671875 0.3984375 2.13671875 0.3984375 4 1 C3.56429687 1.42410156 3.12859375 1.84820312 2.6796875 2.28515625 C-1.45008483 6.35235627 -5.28041129 10.55463788 -9 15 C-9 12 -9 12 -7 9 C-6.34 9 -5.68 9 -5 9 C-4.9175 8.2575 -4.835 7.515 -4.75 6.75 C-3.8405398 3.41531259 -2.76266666 2.05226666 0 0 Z " fill="#43A761" transform="translate(548,56)"/>
<path d="M0 0 C0.93423645 3.01031744 1.04449911 3.86650268 0 7 C-0.639375 7.12375 -1.27875 7.2475 -1.9375 7.375 C-2.618125 7.58125 -3.29875 7.7875 -4 8 C-4.70710678 9.64991582 -5.36562656 11.3207762 -6 13 C-7.56194229 15.112341 -9.25741638 17.02812906 -11 19 C-11 15.25781956 -9.93469563 14.17539255 -7.75 11.1875 C-6.79673828 9.86685547 -6.79673828 9.86685547 -5.82421875 8.51953125 C-5.22222656 7.68808594 -4.62023437 6.85664062 -4 6 C-2.64539035 4.01297892 -1.32176601 2.00908434 0 0 Z " fill="#215054" transform="translate(533,77)"/>
<path d="M0 0 C0.66 0.33 1.32 0.66 2 1 C-1.50368034 6.75604627 -1.50368034 6.75604627 -3.84375 7.90625 C-6.6958894 9.35298738 -8.52737588 11.33700458 -10.75 13.625 C-11.54921875 14.44226562 -12.3484375 15.25953125 -13.171875 16.1015625 C-13.77515625 16.72804688 -14.3784375 17.35453125 -15 18 C-15 15 -15 15 -12.734375 12.44140625 C-11.74707487 11.47406502 -10.7519121 10.5146989 -9.75 9.5625 C-9.25886719 9.08490234 -8.76773438 8.60730469 -8.26171875 8.11523438 C-6.8456624 6.7388276 -5.42294378 5.36928528 -4 4 C-2.66335131 2.66999029 -1.32857996 1.33806982 0 0 Z " fill="#A8AEC4" transform="translate(113,49)"/>
<path d="M0 0 C0.66 0 1.32 0 2 0 C2.36116046 1.4774746 2.71375048 2.95704675 3.0625 4.4375 C3.25972656 5.26121094 3.45695312 6.08492188 3.66015625 6.93359375 C3.77230469 7.61550781 3.88445313 8.29742187 4 9 C3.67 9.33 3.34 9.66 3 10 C2.92851801 11.35243917 2.91600546 12.70834367 2.9375 14.0625 C2.958125 15.361875 2.97875 16.66125 3 18 C2.34 18 1.68 18 1 18 C0.04380267 14.00204108 -0.1039592 10.29196078 -0.0625 6.1875 C-0.05347656 5.02605469 -0.04445312 3.86460937 -0.03515625 2.66796875 C-0.02355469 1.78753906 -0.01195312 0.90710938 0 0 Z " fill="#23325B" transform="translate(35,272)"/>
<path d="M0 0 C0.33 1.32 0.66 2.64 1 4 C-0.32 4.33 -1.64 4.66 -3 5 C-3.04125 5.556875 -3.0825 6.11375 -3.125 6.6875 C-4.44381247 10.17293296 -7.1293644 11.72741349 -10 14 C-10.33 14.66 -10.66 15.32 -11 16 C-11.66 15.67 -12.32 15.34 -13 15 C-12.56429687 14.50371094 -12.12859375 14.00742188 -11.6796875 13.49609375 C-7.75726021 9.02180981 -3.86455714 4.52435958 0 0 Z " fill="#26555B" transform="translate(548,60)"/>
<path d="M0 0 C0.33 0 0.66 0 1 0 C1.04241723 2.33294775 1.04092937 4.66702567 1 7 C0.67 7.33 0.34 7.66 0 8 C-0.23287008 9.68183948 -0.41264166 11.3712416 -0.5625 13.0625 C-0.68818359 14.44115234 -0.68818359 14.44115234 -0.81640625 15.84765625 C-0.87699219 16.55792969 -0.93757812 17.26820312 -1 18 C-1.99 18.33 -2.98 18.66 -4 19 C-2.125 2.125 -2.125 2.125 0 0 Z " fill="#F7E532" transform="translate(514,25)"/>
<path d="M0 0 C0.33 0.99 0.66 1.98 1 3 C-1.62113708 3 -3.50935112 2.68707555 -6 2 C-6 2.66 -6 3.32 -6 4 C-9.3 3.67 -12.6 3.34 -16 3 C-10.85913339 -0.42724441 -5.99202204 -0.1015597 0 0 Z " fill="#7F8BA3" transform="translate(177,24)"/>
<path d="M0 0 C-5.28 3.3 -10.56 6.6 -16 10 C-16 9.01 -16 8.02 -16 7 C-13.91796875 5.2109375 -13.91796875 5.2109375 -11.1875 3.375 C-10.29417969 2.76398437 -9.40085937 2.15296875 -8.48046875 1.5234375 C-5.11293874 -0.54480928 -3.83158106 -1.27719369 0 0 Z " fill="#4BA265" transform="translate(587,31)"/>
<path d="M0 0 C6.68183363 1.0440365 12.7465965 2.4042476 19 5 C19 5.33 19 5.66 19 6 C17.02 6.33 15.04 6.66 13 7 C12.67 6.34 12.34 5.68 12 5 C8.21531279 3.45171887 5.08218297 2.75987159 1 3 C0.67 2.01 0.34 1.02 0 0 Z " fill="#97A1B6" transform="translate(100,234)"/>
<path d="M0 0 C0.66 0.33 1.32 0.66 2 1 C0.6875 2.5 0.6875 2.5 -1 4 C-1.99 4 -2.98 4 -4 4 C-4.33 5.65 -4.66 7.3 -5 9 C-7.31 9 -9.62 9 -12 9 C-8.63378119 5.21300384 -4.58358196 2.1727369 0 0 Z " fill="#70B434" transform="translate(554,35)"/>
<path d="M0 0 C-0.33 0.99 -0.66 1.98 -1 3 C-2.134375 3.309375 -3.26875 3.61875 -4.4375 3.9375 C-5.613125 4.288125 -6.78875 4.63875 -8 5 C-8.68268138 6.32520503 -9.3507041 7.65812182 -10 9 C-13.125 9.75 -13.125 9.75 -16 10 C-13.19680829 7.00123678 -10.40565083 4.83677273 -6.875 2.75 C-6.00617187 2.22921875 -5.13734375 1.7084375 -4.2421875 1.171875 C-2 0 -2 0 0 0 Z " fill="#22495C" transform="translate(586,32)"/>
<path d="M0 0 C-3.96 1.65 -7.92 3.3 -12 5 C-13 2 -13 2 -13 0 C-11.58456585 -0.19658808 -10.16755969 -0.38187546 -8.75 -0.5625 C-7.96109375 -0.66691406 -7.1721875 -0.77132813 -6.359375 -0.87890625 C-4 -1 -4 -1 0 0 Z " fill="#41A951" transform="translate(601,25)"/>
<path d="M0 0 C0.66 0.33 1.32 0.66 2 1 C-0.77779328 4.99307785 -2.49526679 7.21133443 -7.3125 8.375 C-8.529375 8.58125 -9.74625 8.7875 -11 9 C-9.73948004 5.21844011 -8.43553394 4.74381633 -5.0625 2.75 C-4.16660156 2.20859375 -3.27070313 1.6671875 -2.34765625 1.109375 C-1.57292969 0.74328125 -0.79820312 0.3771875 0 0 Z " fill="#8E96AE" transform="translate(361,303)"/>
<path d="M0 0 C2.015625 3.765625 2.015625 3.765625 1.875 5.875 C0.64374503 8.86519064 -1.14320832 11.36455374 -3 14 C-4.25955231 10.22134307 -3.48087189 8.96588214 -2.0625 5.3125 C-1.68222656 4.31863281 -1.30195313 3.32476562 -0.91015625 2.30078125 C-0.60980469 1.54152344 -0.30945313 0.78226562 0 0 Z " fill="#223358" transform="translate(469,257)"/>
<path d="M0 0 C0.66 0.33 1.32 0.66 2 1 C-0.3525753 4.52886295 -1.81425295 4.71405001 -5.82421875 5.59375 C-8.87547833 6.16346454 -11.91981426 6.61497678 -15 7 C-12.0356239 5.02374927 -9.21212254 3.70113094 -5.9375 2.3125 C-4.87402344 1.85488281 -3.81054688 1.39726562 -2.71484375 0.92578125 C-1.81894531 0.62027344 -0.92304687 0.31476562 0 0 Z " fill="#224F51" transform="translate(604,23)"/>
<path d="M0 0 C1 3 1 3 0.00390625 5.48046875 C-0.47175781 6.37378906 -0.94742188 7.26710938 -1.4375 8.1875 C-1.91058594 9.08855469 -2.38367188 9.98960937 -2.87109375 10.91796875 C-3.24363281 11.60503906 -3.61617187 12.29210937 -4 13 C-4.33 13 -4.66 13 -5 13 C-5 10.69 -5 8.38 -5 6 C-4.34 6 -3.68 6 -3 6 C-3 5.01 -3 4.02 -3 3 C-1.5 1.3125 -1.5 1.3125 0 0 Z " fill="#8B95AB" transform="translate(558,278)"/>
<path d="M0 0 C0.33 0 0.66 0 1 0 C1.32712342 6.13053511 1.39366878 10.62669111 -2 16 C-3.3805087 12.23331402 -2.59568159 9.55210827 -1.5625 5.75 C-1.27503906 4.67234375 -0.98757813 3.5946875 -0.69140625 2.484375 C-0.46324219 1.66453125 -0.23507812 0.8446875 0 0 Z " fill="#253459" transform="translate(478,221)"/>
<path d="M0 0 C0.33 0 0.66 0 1 0 C0.88512252 1.58409994 0.75765492 3.16728963 0.625 4.75 C0.52058594 6.07257813 0.52058594 6.07257813 0.4140625 7.421875 C0 10 0 10 -2 14 C-2.33 10.37 -2.66 6.74 -3 3 C-2.34 3 -1.68 3 -1 3 C-0.67 2.01 -0.34 1.02 0 0 Z " fill="#878EAB" transform="translate(573,220)"/>
<path d="M0 0 C1 3 1 3 -0.21484375 5.69921875 C-0.78332031 6.68535156 -1.35179687 7.67148438 -1.9375 8.6875 C-2.50339844 9.68136719 -3.06929688 10.67523438 -3.65234375 11.69921875 C-4.31943359 12.83810547 -4.31943359 12.83810547 -5 14 C-5.66 14 -6.32 14 -7 14 C-5.53967505 8.68972746 -3.01679014 4.53669968 0 0 Z " fill="#264E5C" transform="translate(515,104)"/>
<path d="M0 0 C0.33 0.66 0.66 1.32 1 2 C2.99338221 2.37086181 4.99512332 2.69737711 7 3 C9.01089078 3.63305821 11.01463373 4.29094062 13 5 C8.91556885 6.53166168 5.20544343 5.63081652 1 5 C0.67 3.35 0.34 1.7 0 0 Z " fill="#8E96B0" transform="translate(87,228)"/>
<path d="M0 0 C0.99 0.33 1.98 0.66 3 1 C-0.76293478 5.21904808 -3.82842923 7.04846386 -9 9 C-9.99 9.495 -9.99 9.495 -11 10 C-9.75330996 6.25992989 -8.31486492 5.48752843 -5.125 3.25 C-4.24070312 2.61578125 -3.35640625 1.9815625 -2.4453125 1.328125 C-1.23488281 0.67070313 -1.23488281 0.67070313 0 0 Z " fill="#A3AABE" transform="translate(127,39)"/>
<path d="M0 0 C0.99 0 1.98 0 3 0 C2.91291331 1.45945288 2.80473093 2.91765868 2.6875 4.375 C2.62949219 5.18710938 2.57148438 5.99921875 2.51171875 6.8359375 C2 9 2 9 -1 11 C-0.67 7.37 -0.34 3.74 0 0 Z " fill="#69788F" transform="translate(481,196)"/>
<path d="M0 0 C0.33 0.66 0.66 1.32 1 2 C1.99 2.33 2.98 2.66 4 3 C2.35 4.98 0.7 6.96 -1 9 C-2.0326802 6.21176345 -2.04509293 5.1322726 -1.0625 2.25 C-0.711875 1.5075 -0.36125 0.765 0 0 Z " fill="#EFEB17" transform="translate(512,66)"/>
<path d="M0 0 C0.33 0 0.66 0 1 0 C0.03644647 10.55808656 0.03644647 10.55808656 -1 15 C-1.33 15 -1.66 15 -2 15 C-2.19491452 13.54263913 -2.38069358 12.08405407 -2.5625 10.625 C-2.66691406 9.81289063 -2.77132812 9.00078125 -2.87890625 8.1640625 C-3 6 -3 6 -2 4 C-1.67 3.01 -1.34 2.02 -1 1 C-0.67 0.67 -0.34 0.34 0 0 Z " fill="#7B86A1" transform="translate(605,50)"/>
<path d="M0 0 C1.45922693 0.11409593 2.91740598 0.24165544 4.375 0.375 C5.59316406 0.47941406 5.59316406 0.47941406 6.8359375 0.5859375 C9 1 9 1 11 3 C11 3.66 11 4.32 11 5 C5.25 4.125 5.25 4.125 3 3 C3 2.34 3 1.68 3 1 C2.01 0.67 1.02 0.34 0 0 Z " fill="#8992AC" transform="translate(70,358)"/>
<path d="M0 0 C3 0 3 0 5 1 C4.67 2.65 4.34 4.3 4 6 C2.68 5.67 1.36 5.34 0 5 C-0.5625 3.0625 -0.5625 3.0625 -1 1 C-0.67 0.67 -0.34 0.34 0 0 Z " fill="#1F2F5D" transform="translate(59,344)"/>
<path d="M0 0 C0.66 0.33 1.32 0.66 2 1 C2.625 3.0625 2.625 3.0625 3 5 C0.525 6.485 0.525 6.485 -2 8 C-1.125 1.125 -1.125 1.125 0 0 Z " fill="#5F6B8F" transform="translate(519,328)"/>
<path d="M0 0 C-2.64 0.66 -5.28 1.32 -8 2 C-8 2.66 -8 3.32 -8 4 C-9.98 4 -11.96 4 -14 4 C-12.66065756 1.32131513 -11.48307603 1.25045922 -8.6875 0.3125 C-7.90761719 0.04050781 -7.12773437 -0.23148437 -6.32421875 -0.51171875 C-4 -1 -4 -1 0 0 Z " fill="#A7AEC2" transform="translate(378,299)"/>
<path d="M0 0 C0.66 0.33 1.32 0.66 2 1 C1.54658132 2.27259511 1.08704773 3.54301243 0.625 4.8125 C0.36976562 5.52019531 0.11453125 6.22789062 -0.1484375 6.95703125 C-1 9 -1 9 -3 12 C-3.15384615 4 -3.15384615 4 -2 1 C-1.34 0.67 -0.68 0.34 0 0 Z " fill="#212F59" transform="translate(42,207)"/>
<path d="M0 0 C0.66 0 1.32 0 2 0 C2.25 6.625 2.25 6.625 0 10 C-0.19412181 8.52168779 -0.38012131 7.04230684 -0.5625 5.5625 C-0.66691406 4.73878906 -0.77132812 3.91507812 -0.87890625 3.06640625 C-0.91886719 2.38449219 -0.95882812 1.70257813 -1 1 C-0.67 0.67 -0.34 0.34 0 0 Z " fill="#232F65" transform="translate(595,91)"/>
<path d="M0 0 C0.66 0.33 1.32 0.66 2 1 C0.02 3.97 -1.96 6.94 -4 10 C-4.33 8.68 -4.66 7.36 -5 6 C-4.01 5.67 -3.02 5.34 -2 5 C-2 3.68 -2 2.36 -2 1 C-1.34 0.67 -0.68 0.34 0 0 Z " fill="#40995C" transform="translate(529,80)"/>
<path d="M0 0 C0 3.58912412 -0.66436554 4.10857029 -3 6.6875 C-3.556875 7.31011719 -4.11375 7.93273437 -4.6875 8.57421875 C-5.120625 9.04472656 -5.55375 9.51523437 -6 10 C-6.66 9.67 -7.32 9.34 -8 9 C-7.54625 8.608125 -7.0925 8.21625 -6.625 7.8125 C-4.83190763 6.03055035 -4.83190763 6.03055035 -4 3.375 C-3.67 2.59125 -3.34 1.8075 -3 1 C-2.01 0.67 -1.02 0.34 0 0 Z " fill="#A9B0C6" transform="translate(538,314)"/>
<path d="M0 0 C0.66 0.33 1.32 0.66 2 1 C1.34 3.97 0.68 6.94 0 10 C-0.33 10 -0.66 10 -1 10 C-1 8.02 -1 6.04 -1 4 C-1.66 4 -2.32 4 -3 4 C-3 3.34 -3 2.68 -3 2 C-2.01 1.34 -1.02 0.68 0 0 Z " fill="#1D2D5E" transform="translate(45,314)"/>
<path d="M0 0 C0.33 0.99 0.66 1.98 1 3 C-0.40445835 5.2636564 -2.1967913 7.0208685 -4 9 C-4.82638376 6.10765685 -5 4.11257569 -5 1 C-4.34 1 -3.68 1 -3 1 C-2.67 1.66 -2.34 2.32 -2 3 C-1.34 2.01 -0.68 1.02 0 0 Z " fill="#8991AE" transform="translate(544,305)"/>
<path d="M0 0 C0.33 0.99 0.66 1.98 1 3 C-5.96428571 5.27678571 -5.96428571 5.27678571 -10 4 C-8.71086513 3.32845067 -7.41859796 2.66291141 -6.125 2 C-5.40570313 1.62875 -4.68640625 1.2575 -3.9453125 0.875 C-2 0 -2 0 0 0 Z " fill="#838CA7" transform="translate(452,288)"/>
<path d="M0 0 C0.33 0 0.66 0 1 0 C1 2.31 1 4.62 1 7 C1.66 7 2.32 7 3 7 C2.67 9.64 2.34 12.28 2 15 C1.67 15 1.34 15 1 15 C-0.32286246 10.03926578 -0.08893197 5.08888488 0 0 Z " fill="#67738F" transform="translate(37,295)"/>
<path d="M0 0 C-0.639375 0.103125 -1.27875 0.20625 -1.9375 0.3125 C-2.618125 0.539375 -3.29875 0.76625 -4 1 C-4.33 1.99 -4.66 2.98 -5 4 C-7.31 4 -9.62 4 -12 4 C-9.94577945 1.94577945 -8.66990976 1.31862408 -6 0.3125 C-5.29875 0.04050781 -4.5975 -0.23148438 -3.875 -0.51171875 C-2 -1 -2 -1 0 0 Z " fill="#69AF31" transform="translate(568,31)"/>
<path d="M0 0 C0.99 0.33 1.98 0.66 3 1 C2.67 2.32 2.34 3.64 2 5 C0.02 5 -1.96 5 -4 5 C-2.68 3.35 -1.36 1.7 0 0 Z " fill="#222F5F" transform="translate(348,314)"/>
<path d="M0 0 C1.32 0.66 2.64 1.32 4 2 C3.34 2 2.68 2 2 2 C1.67 2.99 1.34 3.98 1 5 C-1.475 4.01 -1.475 4.01 -4 3 C-2.68 2.01 -1.36 1.02 0 0 Z " fill="#233161" transform="translate(448,291)"/>
<path d="M0 0 C0.98120464 3.05263664 0.98120464 4.94736336 0 8 C-1.32 8.33 -2.64 8.66 -4 9 C-3.35455571 5.51460083 -1.89865603 2.97180943 0 0 Z " fill="#969FB7" transform="translate(461,274)"/>
<path d="M0 0 C0.33 0.66 0.66 1.32 1 2 C0.00390625 3.9453125 0.00390625 3.9453125 -1.4375 6.125 C-1.91058594 6.84945312 -2.38367188 7.57390625 -2.87109375 8.3203125 C-3.24363281 8.87460938 -3.61617188 9.42890625 -4 10 C-5.125 6.25 -5.125 6.25 -4 4 C-3.34 4 -2.68 4 -2 4 C-1.34 2.68 -0.68 1.36 0 0 Z " fill="#44A263" transform="translate(515,102)"/>
<path d="M0 0 C0 2.33333333 0 4.66666667 0 7 C-1.65 7.66 -3.3 8.32 -5 9 C-3.7508258 5.54074837 -2.32472205 2.85306797 0 0 Z " fill="#73B833" transform="translate(510,76)"/>
<path d="M0 0 C0.33 0 0.66 0 1 0 C1.1799928 5.21979128 0.97094808 9.07262981 -1 14 C-1.33 14 -1.66 14 -2 14 C-2.1799928 8.78020872 -1.97094808 4.92737019 0 0 Z " fill="#F3E842" transform="translate(506,64)"/>
<path d="M0 0 C0.66 0.66 1.32 1.32 2 2 C4.10820797 1.6814823 4.10820797 1.6814823 6 1 C4.35 2.65 2.7 4.3 1 6 C0.34 5.67 -0.32 5.34 -1 5 C-0.67 3.35 -0.34 1.7 0 0 Z " fill="#41A156" transform="translate(554,48)"/>
<path d="M0 0 C0.33 0.99 0.66 1.98 1 3 C-3.66666667 3 -8.33333333 3 -13 3 C-12.67 2.34 -12.34 1.68 -12 1 C-9.78515625 0.5859375 -9.78515625 0.5859375 -7.0625 0.375 C-6.16660156 0.30023437 -5.27070312 0.22546875 -4.34765625 0.1484375 C-2.90048294 0.05693569 -1.45006316 0 0 0 Z " fill="#57AB39" transform="translate(588,25)"/>
<path d="M0 0 C0.33 0.66 0.66 1.32 1 2 C0.22265625 3.9453125 0.22265625 3.9453125 -0.9375 6.125 C-1.31777344 6.84945312 -1.69804687 7.57390625 -2.08984375 8.3203125 C-2.39019531 8.87460938 -2.69054687 9.42890625 -3 10 C-3.85050266 6.92014945 -4.21360705 5.03401764 -3 2 C-2.01 1.34 -1.02 0.68 0 0 Z " fill="#3C9162" transform="translate(504,122)"/>
<path d="M0 0 C0.33 0 0.66 0 1 0 C0.67 2.31 0.34 4.62 0 7 C-0.99 7 -1.98 7 -3 7 C-2.38722388 4.03824877 -1.74627478 2.61941217 0 0 Z " fill="#808AA7" transform="translate(85,83)"/>
<path d="M0 0 C0.33 0 0.66 0 1 0 C0.67 3.3 0.34 6.6 0 10 C-2.1519437 6.77208445 -2.20086443 5.71599191 -2 2 C-1.34 2 -0.68 2 0 2 C0 1.34 0 0.68 0 0 Z " fill="#6E7796" transform="translate(599,83)"/>
<path d="M0 0 C2.62187494 1.04874998 3.79371361 1.64931313 5.25 4.125 C5.4975 4.74375 5.745 5.3625 6 6 C2.34683329 4.75023244 1.21934164 4.32901247 -1 1 C-0.67 0.67 -0.34 0.34 0 0 Z " fill="#8692AD" transform="translate(64,352)"/>
<path d="M0 0 C1.32 0.33 2.64 0.66 4 1 C3.67 1.99 3.34 2.98 3 4 C2.34 4 1.68 4 1 4 C0.67 5.32 0.34 6.64 0 8 C0 5.36 0 2.72 0 0 Z " fill="#F8E706" transform="translate(505,73)"/>
<path d="M0 0 C0.66 0.33 1.32 0.66 2 1 C-0.64 2.98 -3.28 4.96 -6 7 C-6 6.01 -6 5.02 -6 4 C-3 1.8125 -3 1.8125 0 0 Z " fill="#4AA563" transform="translate(567,41)"/>
<path d="" fill="#FFFFFF" transform="translate(0,0)"/>
<path d="" fill="#FFFFFF" transform="translate(0,0)"/>
<path d="" fill="#FFFFFF" transform="translate(0,0)"/>
<path d="" fill="#FFFFFF" transform="translate(0,0)"/>
<path d="" fill="#FFFFFF" transform="translate(0,0)"/>
<path d="" fill="#FFFFFF" transform="translate(0,0)"/>
<path d="" fill="#FFFFFF" transform="translate(0,0)"/>
<path d="" fill="#FFFFFF" transform="translate(0,0)"/>
<path d="" fill="#FFFFFF" transform="translate(0,0)"/>
<path d="" fill="#FFFFFF" transform="translate(0,0)"/>
<path d="" fill="#FFFFFF" transform="translate(0,0)"/>
<path d="" fill="#FFFFFF" transform="translate(0,0)"/>
<path d="" fill="#FFFFFF" transform="translate(0,0)"/>
<path d="" fill="#FFFFFF" transform="translate(0,0)"/>
<path d="" fill="#FFFFFF" transform="translate(0,0)"/>
<path d="" fill="#FFFFFF" transform="translate(0,0)"/>
<path d="" fill="#FFFFFF" transform="translate(0,0)"/>
<path d="" fill="#FFFFFF" transform="translate(0,0)"/>
<path d="" fill="#FFFFFF" transform="translate(0,0)"/>
<path d="" fill="#FFFFFF" transform="translate(0,0)"/>
<path d="" fill="#FFFFFF" transform="translate(0,0)"/>
<path d="" fill="#FFFFFF" transform="translate(0,0)"/>
<path d="" fill="#FFFFFF" transform="translate(0,0)"/>
<path d="" fill="#FFFFFF" transform="translate(0,0)"/>
<path d="" fill="#FFFFFF" transform="translate(0,0)"/>
<path d="" fill="#FFFFFF" transform="translate(0,0)"/>
<path d="" fill="#FFFFFF" transform="translate(0,0)"/>
<path d="" fill="#FFFFFF" transform="translate(0,0)"/>
<path d="" fill="#FFFFFF" transform="translate(0,0)"/>
<path d="" fill="#FFFFFF" transform="translate(0,0)"/>
<path d="" fill="#FFFFFF" transform="translate(0,0)"/>
<path d="" fill="#FFFFFF" transform="translate(0,0)"/>
<path d="" fill="#FFFFFF" transform="translate(0,0)"/>
<path d="" fill="#FFFFFF" transform="translate(0,0)"/>
<path d="" fill="#FFFFFF" transform="translate(0,0)"/>
<path d="" fill="#FFFFFF" transform="translate(0,0)"/>
<path d="" fill="#FFFFFF" transform="translate(0,0)"/>
<path d="" fill="#FFFFFF" transform="translate(0,0)"/>
<path d="" fill="#FFFFFF" transform="translate(0,0)"/>
<path d="" fill="#FFFFFF" transform="translate(0,0)"/>
<path d="" fill="#FFFFFF" transform="translate(0,0)"/>
<path d="" fill="#FFFFFF" transform="translate(0,0)"/>
<path d="" fill="#FFFFFF" transform="translate(0,0)"/>
<path d="" fill="#FFFFFF" transform="translate(0,0)"/>
<path d="" fill="#FFFFFF" transform="translate(0,0)"/>
<path d="" fill="#FFFFFF" transform="translate(0,0)"/>
<path d="" fill="#FFFFFF" transform="translate(0,0)"/>
</svg>
